<?xml version="1.0" encoding="UTF-8" standalone="no"?>
<!-- Created with Inkscape (http://www.inkscape.org/) -->

<svg
   xmlns:dc="http://purl.org/dc/elements/1.1/"
   xmlns:cc="http://creativecommons.org/ns#"
   xmlns:rdf="http://www.w3.org/1999/02/22-rdf-syntax-ns#"
   xmlns:svg="http://www.w3.org/2000/svg"
   xmlns="http://www.w3.org/2000/svg"
   xmlns:sodipodi="http://sodipodi.sourceforge.net/DTD/sodipodi-0.dtd"
   xmlns:inkscape="http://www.inkscape.org/namespaces/inkscape"
   width="600"
   height="363.14001"
   id="svg2"
   version="1.1"
   inkscape:version="0.48.1 "
   sodipodi:docname="Cheju].svg"
   style="display:inline">
  <defs
     id="defs4" />
  <sodipodi:namedview
     id="base"
     pagecolor="#ffffff"
     bordercolor="#666666"
     borderopacity="1.0"
     inkscape:pageopacity="0.0"
     inkscape:pageshadow="2"
     inkscape:zoom="1.5"
     inkscape:cx="205.65129"
     inkscape:cy="165.12521"
     inkscape:document-units="px"
     inkscape:current-layer="layer2"
     showgrid="false"
     inkscape:window-width="1440"
     inkscape:window-height="878"
     inkscape:window-x="-8"
     inkscape:window-y="-8"
     inkscape:window-maximized="1" />
  <metadata
     id="metadata7">
    <rdf:RDF>
      <cc:Work
         rdf:about="">
        <dc:format>image/svg+xml</dc:format>
        <dc:type
           rdf:resource="http://purl.org/dc/dcmitype/StillImage" />
        <dc:title />
      </cc:Work>
    </rdf:RDF>
  </metadata>
  <g
     inkscape:groupmode="layer"
     id="layer2"
     inkscape:label="bg"
     transform="translate(0,-689.22217)"
     style="display:inline">
    <rect
       style="fill:#c6ecff;fill-opacity:1;stroke:none"
       id="rect3984"
       width="600"
       height="363.33331"
       x="0"
       y="689.02887" />
    <path
       style="fill:#fefee9;fill-opacity:1;stroke:none"
       d="m 73.223218,294.339 c -0.772942,-1.44425 -1.405349,-4.06905 -1.405349,-5.83288 0,-2.0901 -1.113019,-3.71409 -3.195921,-4.66313 -3.978374,-1.81267 -9.998355,-9.56261 -11.30355,-14.55185 -0.540037,-2.06435 -2.26165,-4.32974 -3.825806,-5.0342 -1.564155,-0.70446 -3.102082,-2.26804 -3.417612,-3.47464 -0.414676,-1.58572 -2.771351,-2.44244 -8.502294,-3.09083 -6.432896,-0.7278 -9.295614,-1.92331 -15.175041,-6.33732 -7.702911,-5.783 -16.4682222,-16.91812 -17.9430036,-22.79412 -0.4898482,-1.95171 -2.2824714,-4.46053 -3.9836072,-5.57516 -3.66896749,-2.404 -3.1030559,-7.44709 0.8356768,-7.44709 3.0719346,0 3.2142385,-2.40287 0.381793,-6.44675 -1.930322,-2.75592 -1.936543,-3.43797 -0.066553,-7.29667 1.8107868,-3.73653 1.826592,-4.61738 0.1293653,-7.20968 -1.0633958,-1.6242 -1.9334469,-5.99302 -1.9334469,-9.7085 0,-7.48312 1.8122645,-9.26974 6.7320436,-6.63675 3.820585,2.04472 5.219867,-0.0141 5.247539,-7.72125 0.01787,-4.9743 0.56299,-6.01722 4.35375,-8.32946 2.383334,-1.45376 6.433334,-3.03622 9,-3.5166 2.566667,-0.48037 5.45069,-1.98212 6.408939,-3.33721 0.958249,-1.35509 2.544056,-2.4638 3.524015,-2.4638 1.8972,0 3.381312,-2.78751 3.430028,-6.44239 0.01631,-1.22334 1.18391,-3.72428 2.594677,-5.55761 2.053256,-2.66827 2.898624,-3.0008 4.237019,-1.66667 2.765476,2.75667 6.471989,2.03126 6.471989,-1.26666 0,-2.28148 0.355556,-2.57778 1.6,-1.33334 2.524215,2.52422 4.899977,1.91726 4.123137,-1.05338 -0.481981,-1.84311 0.137306,-2.96283 2.027934,-3.66667 3.003086,-1.11799 9.582262,-10.0485 9.582262,-13.00686 0,-1.03134 0.649719,-4.90469 1.443819,-8.60746 1.304236,-6.08144 1.794061,-6.73229 5.066667,-6.73229 4.186364,0 6.822848,-2.16395 6.822848,-5.600002 0,-1.958076 1.112697,-2.4 6.042825,-2.4 3.323553,0 8.123549,-0.869384 10.666669,-1.931964 4.06782,-1.699646 4.62384,-2.511855 4.62384,-6.754323 0,-8.548133 1.70339,-10.116889 9.93468,-9.149463 9.91387,1.165182 15.99076,-0.261578 21.42089,-5.029301 4.11723,-3.614971 5.07336,-3.912956 8.60503,-2.681811 3.44637,1.201411 4.28689,0.988652 6.3396,-1.604733 1.30156,-1.644377 4.30672,-4.131573 6.67813,-5.5271 4.29355,-2.526661 4.32318,-2.524964 7.05194,0.404019 4.08812,4.38808 13.30306,3.127968 13.30306,-1.819148 0,-1.616863 0.53495,-1.713704 2.79247,-0.505518 2.29811,1.22991 3.33329,0.986395 5.84744,-1.375524 2.38763,-2.24305 4.90873,-2.923358 11.54088,-3.114237 7.45183,-0.214469 8.64836,-0.616851 9.81921,-3.302116 0.99483,-2.281543 2.08144,-2.870884 4.27999,-2.321319 2.07843,0.519538 3.36907,-0.05271 4.38025,-1.942114 0.97558,-1.822886 2.80303,-2.683955 5.72,-2.695187 3.42231,-0.0132 4.89368,-0.953947 7.29868,-4.666667 3.29139,-5.081057 7.15515,-5.951464 11.57592,-2.607757 2.90916,2.20038 12.74516,2.682151 12.74516,0.624263 0,-0.733334 1.53944,-1.333334 3.42099,-1.333334 1.88155,0 4.55237,-0.605498 5.93517,-1.345553 1.73715,-0.929691 4.4058,-0.839624 8.63466,0.29142 4.01078,1.072723 6.7262,1.191832 7.8778,0.345553 8.12374,-5.969912 8.19022,-5.991097 14.87834,-4.741622 6.48064,1.210714 6.58351,1.17488 11.30294,-3.937176 l 4.76277,-5.159011 10.15093,0.273195 c 8.71375,0.234514 10.59118,-0.12796 13.26034,-2.560188 1.71017,-1.55836 4.4594,-3.529471 6.1094,-4.380246 1.65,-0.850773 3,-2.725752 3,-4.166617 0,-3.2027874 1.72148,-3.3691808 4.17008,-0.403067 1.00645,1.219178 4.3416,3.330306 7.41144,4.691395 6.41768,2.845439 7.42257,2.699541 33.35514,-4.842747 13.22347,-3.8459379 18.49016,-4.7320022 28.1267,-4.7320022 10.16334,0 12.20133,-0.3808424 14.26997,-2.6666666 4.14824,-4.58375867 17.9096,-3.1501246 21.06625,2.194646 1.46302,2.4771313 6.21316,2.267446 9.16575,-0.4046018 2.09505,-1.8960001 3.19913,-1.983106 7.77165,-0.6131446 5.05768,1.5153189 5.32968,1.8677612 5.32968,6.9059882 0,4.872545 0.51492,5.635725 6.26104,9.279811 3.44358,2.183849 7.02269,3.970634 7.9536,3.970634 0.93092,0 3.74265,1.8 6.24832,4 4.88076,4.285364 9.70673,5.43602 8.3882,2 -1.38259,-3.602969 9.22395,-2.522576 21.61293,2.201516 2.29723,0.875967 2.87047,1.806774 2.1531,3.496143 -2.15518,5.075265 -1.4276,7.635675 2.16977,7.635675 6.24573,0 10.99257,6.863266 7.02451,10.156465 -3.27186,2.715405 0.15614,20.111663 4.2745,21.692027 1.013,0.388725 3.59468,-0.768162 5.73707,-2.57086 2.14239,-1.802698 4.25863,-3.277632 4.70277,-3.277632 0.44414,0 0.80752,2.128649 0.80752,4.730332 0,3.42638 1.01075,5.691276 3.66667,8.216341 2.55111,2.425409 2.91908,3.215628 1.20947,2.597315 -6.99886,-2.531267 -8.16375,-2.256566 -11.27382,2.658556 -3.78328,5.979052 -3.01957,10.900428 2.50002,16.110018 4.29704,4.05573 4.3626,4.22233 2.69633,6.85285 -0.96071,1.51665 -1.89247,1.40187 -5.41192,-0.66667 -4.17123,-2.45161 -4.28727,-2.44993 -6.15241,0.0894 -1.04555,1.4235 -1.901,4.46529 -1.901,6.75955 0,2.82902 -1.11406,5.14004 -3.46191,7.18148 -2.55585,2.22228 -3.23144,3.7683 -2.58131,5.90711 1.6349,5.37847 1.38606,6.79293 -1.29012,7.3335 -1.46666,0.29625 -7.25333,3.76593 -12.85925,7.7104 -10.85203,7.63575 -11.09913,8.09277 -12.17561,22.51979 -0.22996,3.0818 -1.27598,4.43042 -4.55679,5.87505 -3.66261,1.61276 -4.15536,2.38987 -3.52233,5.55503 0.6221,3.11052 0.24944,3.74881 -2.40835,4.12493 -2.83677,0.40147 -3.11468,1.04489 -2.84113,6.57803 0.26358,5.33206 -0.11574,6.32393 -2.90448,7.59456 -2.06011,0.93865 -3.36111,2.79909 -3.63653,5.20029 -0.4186,3.64933 -0.60098,3.72752 -7.62315,3.26853 -5.43392,-0.35518 -8.79385,0.27895 -13.73132,2.59154 -5.91543,2.77062 -7.06972,2.90292 -12.13904,1.39122 -11.21799,-3.34525 -11.29956,-3.34153 -14.83332,0.67683 -1.84309,2.09585 -3.37005,4.79388 -3.39323,5.9956 -0.0276,1.43087 -1.66349,2.48911 -4.73998,3.06627 -3.3902,0.636 -5.52422,2.17141 -7.66667,5.51609 -2.30033,3.59117 -3.56925,4.43795 -5.63548,3.76063 -1.46667,-0.48078 -4.16667,-0.86027 -6,-0.84334 -4.00452,0.0371 -17.76265,3.34218 -23.33333,5.60544 -2.20539,0.89602 -12.25507,1.85159 -22.39971,2.12988 -10.11983,0.2776 -18.96983,0.8571 -19.66667,1.28776 -0.69682,0.43067 -1.26696,2.24455 -1.26696,4.03084 0,2.53306 -1.29489,3.8565 -5.88386,6.01356 -3.57172,1.67891 -7.24682,4.8253 -9.35226,8.00683 -2.53034,3.82363 -4.38848,5.24109 -6.87045,5.24109 -1.87113,0 -4.51016,0.59303 -5.86448,1.31784 -1.86725,0.99932 -4.59017,0.32215 -11.26561,-2.80166 -9.90839,-4.6367 -13.51846,-4.37302 -12.1973,0.8909 1.3451,5.3593 -0.40518,6.29866 -4.81781,2.58567 -2.76364,-2.32544 -4.91209,-3.13639 -6.75756,-2.55065 -1.48815,0.47232 -5.03784,0.0891 -7.88823,-0.85163 -3.6845,-1.216 -5.59534,-1.29756 -6.61072,-0.28219 -0.88393,0.88394 -2.8532,1.01951 -5.16756,0.35576 -3.15126,-0.90377 -4.33578,-0.4494 -7.53176,2.88914 -3.61613,3.77744 -4.1541,3.91965 -11.57478,3.05984 -7.63883,-0.88507 -7.85218,-0.81911 -11.56462,3.57597 -4.64548,5.49969 -7.09317,4.53451 -11.82666,-4.66357 -3.46491,-6.73298 -5.35742,-7.39743 -12.53583,-4.40131 -2.35977,0.98492 -6.61869,2.22677 -9.46425,2.75968 -4.81332,0.9014 -5.44706,0.63733 -9.09707,-3.79077 -2.15783,-2.61783 -4.69665,-4.75968 -5.64184,-4.75968 -0.94517,0 -5.79103,1.84657 -10.76855,4.10348 -4.97752,2.25692 -10.20502,3.80144 -11.61669,3.43228 -1.49283,-0.39038 -3.64096,0.40309 -5.13439,1.89652 -3.30825,3.30825 -5.01821,3.23564 -8.86301,-0.37636 l -3.13383,-2.94408 -4.85968,2.61074 c -5.78224,3.10638 -7.87111,2.83066 -12.62298,-1.66612 -2.98861,-2.82816 -4.36387,-3.239 -8.34342,-2.49242 -2.96272,0.55581 -5.59466,2.16017 -6.95856,4.24174 -1.20647,1.84131 -4.48187,4.51523 -7.27866,5.94204 -5.547502,2.83012 -7.840911,6.01767 -7.840911,10.89786 0,1.73488 -0.655859,3.81017 -1.457464,4.61178 -1.054396,1.0544 -0.806999,2.4502 0.894572,5.04712 1.996037,3.04635 2.065279,3.77116 0.457464,4.78879 -3.124369,1.97749 -5.227905,1.40344 -5.227905,-1.42671 0,-3.02312 -3.31944,-3.59808 -4.933747,-0.85457 -0.586439,0.99664 -3.283847,2.21775 -5.994237,2.71357 -4.086271,0.74751 -5.168023,0.45296 -6.333334,-1.72444 z"
       id="path3964"
       inkscape:connector-curvature="0"
       transform="translate(0,689.22217)" />
    <g
       id="g3966"
       style="fill:#fefee9;fill-opacity:1">
      <g
         transform="translate(-18.057785,377.92914)"
         id="g3818"
         style="fill:#fefee9;fill-opacity:1">
        <path
           style="color:#000000;fill:#fefee9;fill-opacity:1;stroke:#838383;stroke-width:1px;stroke-linecap:butt;stroke-linejoin:miter;stroke-miterlimit:4;stroke-opacity:1;stroke-dasharray:none;stroke-dashoffset:0;marker:none;visibility:visible;display:inline;overflow:visible;enable-background:accumulate"
           d="m 25.691546,-146.21257 c 0,0 -0.235702,-6.59966 -2.357022,-6.83537 -2.121321,-0.2357 -3.771236,-0.7071 -3.299832,-2.35702 0.471405,-1.64991 -1.885618,0 -1.414213,-2.82843 0.471404,-2.82842 1.414213,-6.36396 3.299831,-6.12825 1.885618,0.2357 3.771236,2.82842 2.121321,-1.88562 -1.649916,-4.71405 -5.18545,-2.35702 -3.06413,-7.54247 2.121321,-5.18545 4.714045,-4.94975 2.357023,-8.72099 -2.357023,-3.77123 -3.299832,3.77124 -2.592725,-5.42115 0.707107,-9.19239 -3.064129,-12.49222 3.299832,-14.14214 6.363961,-1.64991 7.778174,8.24958 8.485281,-1.88561 0.707107,-10.1352 -1.885618,-8.95669 4.242641,-12.49222 6.128258,-3.53554 7.542472,-3.29984 10.370899,-4.00694 2.828427,-0.70711 3.771236,0.94281 5.656854,-3.29983 1.885618,-4.24264 5.656855,-3.06413 5.656855,-3.06413 l 1.414213,-4.00694 c 0,0 -2.357022,-0.2357 -0.707107,-3.06413 1.649916,-2.82843 6.363961,-8.72098 8.249579,-7.30677 1.885619,1.41421 2.592725,3.77124 4.714046,3.06413 2.12132,-0.70711 -0.235703,-6.83537 2.12132,-5.42115 2.357023,1.41421 4.478343,2.59272 4.478343,2.59272 0,0 -1.414214,-3.29983 0,-5.18545 1.414214,-1.88562 3.771236,-0.70711 4.714045,-1.41421 0.942809,-0.70711 0.707107,-1.17851 2.828427,-4.94975 2.121321,-3.77124 2.828427,-1.88562 3.299832,-4.71404 0.471404,-2.82843 -0.707107,-4.00694 1.414213,-8.01388 2.121321,-4.00694 0.235703,-7.07107 1.885619,-9.66379 1.649915,-2.59273 4.949747,0.9428 7.542469,-0.23571 2.59273,-1.17851 3.77124,-4.71404 3.53554,-6.36396 -0.23571,-1.64991 -0.47141,-2.59272 4.47834,-2.12132 4.94975,0.47141 17.20626,-0.7071 16.49916,-5.42115 -0.70711,-4.71404 0.7071,-12.25652 3.29983,-12.96362 2.59272,-0.70711 6.36396,0.2357 9.89949,1.41421 3.53554,1.17851 11.54942,-0.4714 16.02776,-3.53553 4.47834,-3.06413 3.29983,-5.65686 7.54247,-5.89256 4.24264,-0.2357 6.83537,2.82843 8.48528,1.64991 1.64992,-1.17851 2.35702,-6.12825 5.42115,-6.12825 3.06413,0 4.47835,-4.94975 7.54248,-4.24264 3.06413,0.7071 3.06413,5.18545 7.07106,5.65685 4.00694,0.4714 8.95669,-1.64992 8.24958,-3.06413 -0.7071,-1.41421 -1.41421,-4.71404 0.47141,-3.77124 1.88562,0.94281 4.24264,2.82843 5.42115,2.59273 1.17851,-0.2357 3.77124,-4.00694 5.18545,-4.71405 1.41421,-0.7071 3.53553,0.94281 5.89256,0.47141 2.35702,-0.47141 1.41421,-3.53554 4.71404,-2.35702 3.29983,1.17851 3.77124,3.53553 6.83537,0.9428 3.06413,-2.59272 -0.47141,-5.42115 3.06413,-6.12825 3.53553,-0.70711 3.77123,0.7071 5.42115,1.17851 1.64991,0.4714 1.17851,-3.53554 2.59272,-4.94975 1.41422,-1.41421 7.54248,0.94281 9.19239,-0.2357 1.64992,-1.17851 3.29983,-8.48528 8.01388,-9.42809 4.71404,-0.94281 7.30677,2.82842 10.1352,3.77123 2.82842,0.94281 6.83536,1.64992 8.24957,0.47141 1.41422,-1.17851 -1.64991,-3.77124 2.35703,-3.06413 4.00694,0.70711 6.36396,0.94281 7.30677,-0.47141 0.94281,-1.41421 3.29983,-1.64991 6.59966,-1.17851 3.29983,0.47141 8.24958,3.77124 11.54941,1.41422 3.29983,-2.35703 4.47834,-5.42116 8.01388,-5.89256 3.53553,-0.4714 10.8423,4.24264 14.61354,0.70711 3.77123,-3.53554 4.71404,-9.6638 9.42809,-8.72099 4.71404,0.94281 16.49916,1.41422 19.09188,-0.2357 2.59273,-1.64992 4.94975,-6.59966 8.48528,-6.12826 3.53554,0.47141 0.47141,-8.01387 3.06413,-8.48528 2.59273,-0.4714 11.07801,13.19933 22.39172,9.8995 11.31371,-3.29984 28.75567,-7.54248 33.70542,-9.6638 4.94975,-2.12132 6.59966,-2.12132 12.49222,-1.64991 5.89256,0.4714 10.8423,0.7071 13.67073,0.2357 2.82843,-0.47141 1.41421,1.41421 4.24264,-2.82843 2.82843,-4.24264 17.91337,-3.29983 21.44891,0 3.53553,3.29983 2.59272,5.89256 6.83536,4.47835 4.24264,-1.41422 0.47141,-6.36397 7.30677,-4.24265 6.83537,2.12132 10.6066,1.64992 10.84231,6.12826 0.2357,4.47835 -4.24264,3.77124 1.64991,9.19239 5.89256,5.42115 12.02082,5.18545 15.79205,8.24958 3.77124,3.06413 3.29984,3.77124 5.42116,5.18545 2.12132,1.41421 3.77123,0.4714 3.29983,-0.4714 -0.47141,-0.94281 -7.54247,-2.59273 0.7071,-3.06413 8.24958,-0.47141 8.48529,-1.41422 11.54942,0.7071 3.06412,2.12132 6.36396,1.88562 8.01387,2.59273 1.64992,0.7071 4.24264,-1.17851 5.65686,2.82842 1.41421,4.00694 -3.29984,7.54248 -1.64992,9.19239 1.64992,1.64992 5.65686,-1.88561 8.48528,0.94281 2.82843,2.82843 4.71405,8.95669 3.77124,9.8995 -0.94281,0.94281 -3.53554,1.41421 -3.53554,4.00694 0,2.59272 2.12132,5.65685 1.41422,7.07106 -0.70711,1.41422 -0.94281,-0.7071 0.4714,4.00694 1.41422,4.71405 3.29983,7.54247 5.42115,5.65686 2.12132,-1.88562 3.29984,-1.64992 4.47835,-4.00694 1.17851,-2.35703 4.24264,-2.82843 5.18545,-1.88562 0.94281,0.94281 -0.94281,11.54941 3.29983,13.67073 4.24264,2.12132 6.83536,3.06413 4.94975,4.47834 -1.88562,1.41422 -5.89256,0.47141 -8.01388,-1.17851 -2.12132,-1.64991 -3.77124,-1.41421 -4.24264,0.94281 -0.47141,2.35702 -4.00694,4.00694 -4.24264,5.65686 -0.2357,1.64991 -1.41422,1.17851 0.7071,6.59966 2.12133,5.42115 9.19239,8.95668 8.24958,9.19239 -0.94281,0.2357 -0.2357,5.42115 -3.06413,5.89255 -2.82842,0.47141 -8.01387,-4.24264 -8.01387,-4.24264 0,0 -2.12132,0.47141 -3.53554,4.47835 -1.41421,4.00693 1.64992,7.54247 -2.12132,10.3709 -3.77123,2.82842 -4.24264,1.17851 -4.47834,4.71404 -0.2357,3.53553 3.29983,6.36396 3.29983,6.36396 0,0 0.2357,1.88562 -3.29983,3.77124 -3.53553,1.88562 1.41421,-4.00694 -9.19239,3.53553 -10.6066,7.54247 -14.84924,10.3709 -15.55635,12.72792 -0.7071,2.35703 0.94281,6.12826 0.23571,6.36396 -0.70711,0.23571 -2.12132,3.06413 -2.12132,4.94975 0,1.88562 2.59272,5.18545 -1.64992,7.30677 -4.24264,2.12132 -6.36396,0.94281 -6.36396,2.82843 0,1.88562 3.77123,5.18545 0,7.07107 -3.77124,1.88562 -4.71405,-0.94281 -5.65686,2.59272 -0.94281,3.53554 4.94975,9.8995 0.70711,10.84231 -4.24264,0.9428 -5.42115,2.12132 -6.36396,4.47834 -0.94281,2.35702 1.64992,7.54247 -4.47834,6.12826 -6.12826,-1.41422 -8.24958,-2.12132 -11.31371,-1.17851 -3.06413,0.94281 -3.77124,2.59272 -7.07107,3.77123 -3.29983,1.17851 -6.36396,3.06413 -11.31371,1.41422 -4.94975,-1.64992 -9.19239,-3.53554 -10.3709,-4.00694 -1.17851,-0.47141 -2.82842,2.12132 -3.29983,3.53553 -0.4714,1.41422 -2.82843,3.29983 -4.00694,3.29983 -1.17851,0 0.94281,5.18545 -1.41421,5.89256 -2.35702,0.70711 -4.00694,-1.41421 -4.47834,0.2357 -0.47141,1.64992 -3.06413,0.2357 -4.94975,2.35702 -1.88562,2.12132 -3.29983,6.83537 -4.94975,7.54248 -1.64991,0.7071 -6.12826,-0.23571 -7.77817,-1.64992 -1.64992,-1.41421 0.2357,-1.88562 -3.29984,-0.2357 -3.53553,1.64991 -5.89255,2.82843 -11.078,3.06413 -5.18545,0.2357 -2.82843,0.2357 -8.72099,2.59272 -5.89255,2.35703 -9.66379,3.77124 -12.72792,3.06413 -3.06413,-0.7071 -3.29983,-2.35702 -4.71404,-0.7071 -1.41422,1.64991 -3.29983,-0.94281 -6.12826,-1.17852 -2.82843,-0.2357 -1.88562,0 -3.77124,1.41422 -1.88562,1.41421 -0.7071,1.17851 -7.07107,0.94281 -6.36396,-0.23571 -9.66379,-0.70711 -9.42809,1.64991 0.23571,2.35703 1.17852,6.12826 -2.82842,7.30677 -4.00694,1.17851 -5.42115,1.17851 -7.77818,3.53554 -2.35702,2.35702 -1.41421,0 -3.77123,4.00694 -2.35703,4.00693 -2.35703,5.89255 -7.07107,7.07106 -4.71405,1.17851 -5.65686,-0.2357 -7.30677,1.17851 -1.64992,1.41422 -0.2357,4.00694 -4.47834,1.41422 -4.24264,-2.59273 -16.97057,-9.66379 -18.62048,-6.59967 -1.64992,3.06413 3.77123,4.71405 1.64991,6.36397 -2.12132,1.64991 -2.59272,3.29983 -4.94974,2.82842 -2.35703,-0.4714 -2.35703,-5.65685 -6.83537,-5.89255 -4.47834,-0.23571 -3.53553,0.7071 -4.71405,1.17851 -1.17851,0.4714 2.12133,1.64991 -2.35702,-0.2357 -4.47834,-1.88562 -7.54247,-3.77124 -8.24958,-2.59273 -0.7071,1.17851 -1.41421,3.29983 -5.42115,1.41421 -4.00694,-1.88561 -5.89256,-1.17851 -6.59966,0.94281 -0.70711,2.12132 -3.77124,6.36396 -11.31371,5.18545 -7.54247,-1.17851 -7.07107,-3.53553 -10.8423,0.2357 -3.77124,3.77124 -2.35703,5.89256 -6.59967,6.12826 -4.24264,0.23571 -3.53553,0.70711 -6.12826,-2.12132 -2.59272,-2.82842 -4.24264,-12.72792 -8.48528,-12.25651 -4.24264,0.4714 -6.83536,3.29983 -11.54941,4.00693 -4.71404,0.70711 -9.19239,2.82843 -11.07801,0.70711 -1.88561,-2.12132 -5.18544,-9.66379 -8.95668,-8.48528 -3.77124,1.17851 -16.26346,8.24958 -19.56329,8.72098 -3.29983,0.47141 -1.17851,-3.29983 -4.71404,-0.7071 -3.53554,2.59272 -2.59273,5.89255 -7.77818,4.24264 -5.18545,-1.64992 -4.00694,-5.89256 -7.77817,-5.42115 -3.77124,0.4714 -4.94975,6.12825 -10.3709,4.47834 -5.42115,-1.64992 -5.89256,-2.82843 -7.30677,-5.18545 -1.41422,-2.35702 -4.71405,-2.82843 -9.42809,-0.70711 -4.71405,2.12132 -1.88562,4.47834 -6.36396,7.30677 -4.47835,2.82843 -5.18545,1.17851 -6.36396,2.59273 -1.17852,1.41421 -3.77124,1.41421 -4.71405,4.47834 -0.94281,3.064129 1.41421,9.42809 -2.12132,10.370899 -3.53553,0.942809 4.94975,5.421152 2.35702,4.714045 -2.59272,-0.707107 3.53554,3.535534 -0.4714,4.714045 -4.00694,1.178512 -5.89256,5.18545 -7.30677,1.178512 -1.41422,-4.006939 0,-6.128259 -2.59273,-4.478343 -2.59272,1.649916 3.06413,3.535534 -4.71404,4.006938 -7.778177,0.471405 -11.549413,2.592725 -11.549413,-3.535534 0,-6.128258 -0.471405,-8.013877 -3.06413,-8.249579 -2.592725,-0.235702 -10.135197,-9.899493 -10.842304,-10.842303 -0.707106,-0.94281 -1.649916,-9.66379 -4.006938,-10.1352 -2.357023,-0.4714 -2.12132,3.06413 -4.242641,-0.7071 -2.12132,-3.77124 4.242641,-3.77124 -4.949747,-4.47835 -9.192388,-0.7071 -10.842304,0 -16.027754,-4.94975 -5.18545,-4.94974 -8.956686,-4.71404 -12.256518,-10.37089 -3.299831,-5.65686 -8.249579,-12.02082 -8.249579,-12.02082 z"
           id="path2997"
           inkscape:connector-curvature="0"
           transform="translate(0,689.22217)" />
        <path
           style="color:#000000;fill:#fefee9;fill-opacity:1;stroke:#838383;stroke-width:1px;stroke-linecap:butt;stroke-linejoin:miter;stroke-miterlimit:4;stroke-opacity:1;stroke-dasharray:none;stroke-dashoffset:0;marker:none;visibility:visible;display:inline;overflow:visible;enable-background:accumulate"
           d="m 600.66667,-336.19332 -8,0.5 0.33333,-3.16667 -4.83333,-5.33333 -4,-0.83333 -3.33334,2.16666 0.16667,5.5 -3.16667,3.66667 -2.33333,4.83333 2.16667,5.33334 c 0,0 -6.83334,0 1.66666,4 8.5,4 11,1.66666 11,1.66666 0,0 1.33334,3.83334 3.5,2.83334 2.16667,-1 3,-5.83334 3,-5.83334 l 4.83334,-4.5 c 0,0 -4.83334,-2 -5,-4.33333 -0.16667,-2.33333 1.83333,-2.83333 3.16666,-4.5 1.33334,-1.66667 0.83334,-2 0.83334,-2 z"
           id="path3785"
           inkscape:connector-curvature="0"
           transform="translate(0,689.22217)" />
        <path
           style="color:#000000;fill:#fefee9;fill-opacity:1;stroke:#838383;stroke-width:1px;stroke-linecap:butt;stroke-linejoin:miter;stroke-miterlimit:4;stroke-opacity:1;stroke-dasharray:none;stroke-dashoffset:0;marker:none;visibility:visible;display:inline;overflow:visible;enable-background:accumulate"
           d="m 97.666667,-65.193318 c 0,0 -5.333334,-0.666667 -5,3.333333 0.333333,4 0,7 2,7.666667 2,0.666666 7.333333,-2 7.333333,-2 0,0 3,-4.666667 1.66667,-6 -1.33334,-1.333334 -6.000003,-3 -6.000003,-3 z"
           id="path3787"
           inkscape:connector-curvature="0"
           transform="translate(0,689.22217)" />
        <path
           style="color:#000000;fill:#fefee9;fill-opacity:1;stroke:#838383;stroke-width:0.99305761px;stroke-linecap:butt;stroke-linejoin:miter;stroke-miterlimit:4;stroke-opacity:1;stroke-dasharray:none;stroke-dashoffset:0;marker:none;visibility:visible;display:inline;overflow:visible;enable-background:accumulate"
           d="m 91.789947,665.82952 c 0,0 -1.62976,0.33333 -1.30105,4.33333 0.32873,4 -1,5 0.97233,5.66667 1.97233,0.66666 7.23187,-2 7.23187,-2 0,0 1.0823,-5.30895 -0.68972,-4.66667 -7.716709,2.797 -3.772748,-6.35714 -6.21343,-3.33333 z"
           id="path3787-1"
           inkscape:connector-curvature="0"
           sodipodi:nodetypes="csscsc" />
      </g>
      <g
         transform="translate(1.18e-4,-4.6335156e-4)"
         id="g3862"
         style="fill:#fefee9;fill-opacity:1">
        <path
           transform="translate(-18.057785,1067.1513)"
           inkscape:connector-curvature="0"
           id="path3767"
           d="m 58.666667,-226.85999 c 0,0 0,5 1.166666,6.5 1.166667,1.5 5.666667,1.83334 6.833334,4.5 1.166666,2.66667 0.333333,6 2,7.16667 1.666666,1.16667 2.5,1.16667 3.333333,1.16667 0.833333,0 1.166667,6.16666 2.333333,6.83333 1.166667,0.66667 4.166667,-4.33333 6,-3 1.833334,1.33333 2.666667,5.16667 5,4.5 2.333334,-0.66667 3.166667,-3 5.5,-1.83333 2.333334,1.16666 3,1.83333 4,1.83333 1,0 1.166667,4 2.5,3 1.333334,-1 0.833334,-1.16667 1.5,-2.33333 0.666667,-1.16667 3.833337,-5.33334 5.833337,-4.33334 2,1 1.33333,0 3.16666,4 1.83334,4 3.83334,4.33334 4.16667,7.5 0.33333,3.16667 1.16667,3.66667 2,5.5 0.83333,1.83334 4.16667,1.16667 1.66667,6.5 -2.5,5.33334 -4.66667,6.66667 -5.66667,8.83334 -1,2.16666 -4.66667,1.33333 -4.16667,2.66666 0.5,1.33334 8.16667,3 8.33334,6.66667 0.16666,3.66667 -0.83334,7.16667 2.33333,9.33333 3.16667,2.16667 7,5.33334 5.16667,7 -1.83334,1.66667 -6.16667,5.83334 -6.16667,7.66667 0,1.83333 -0.5,11.16667 -1.66667,12.66667 -1.16666,1.5 -5.5,5.66666 -5.66666,8.16666 -0.16667,2.5 1.83333,4.33334 0.66666,5.33334 -1.16666,1 2.83334,3.5 2.83334,5 0,1.5 -2,6.166665 0.5,6.499998 2.5,0.333333 3.5,0.5 3.5,0.5"
           style="color:#000000;fill:#fefee9;fill-opacity:1;stroke:#838383;stroke-width:1px;stroke-linecap:butt;stroke-linejoin:miter;stroke-miterlimit:4;stroke-opacity:1;stroke-dasharray:none;stroke-dashoffset:0;marker:none;visibility:visible;display:inline;overflow:visible;enable-background:accumulate" />
        <path
           transform="translate(-18.057785,1067.1513)"
           inkscape:connector-curvature="0"
           id="path3769"
           d="m 117.83333,-284.35999 c 0,0 3.5,2.5 2.83334,4.5 -0.66667,2 0.16666,2.83334 0.16666,5.83334 0,3 2.83334,4.5 2,7 -0.83333,2.5 -1.5,9.5 0,11.66666 1.5,2.16667 4.5,3.33334 4.33334,7.16667 -0.16667,3.83333 -2,5.33333 0,6 2,0.66667 4.33333,4 6.16666,4.5 1.83334,0.5 2.33334,-0.66667 3.5,5.66667 1.16667,6.33333 2.16667,8.33333 4.83334,10.5 2.66666,2.16666 23.33333,18.33333 28.5,18.5 5.16666,0.16666 12.5,2.83333 14.16666,3 1.66667,0.16666 6.66667,-2 9.33334,-0.5 2.66666,1.5 10.66666,1.83333 14.5,2.5 3.83333,0.66666 5.16666,-0.5 6.16666,0.5 1,1 3.66667,1.33333 1.66667,2.66666 -2,1.33334 -4.66667,1.83334 -5.16667,4 -0.5,2.16667 -3,4.33334 -3.16666,8.33334 -0.16667,4 -0.66667,7.16666 -2,8.33333 -1.33334,1.16667 -0.83334,2.5 -2.83334,3.83333 -2,1.33334 -0.33333,2.16667 -3.83333,2.33334 -3.5,0.16666 -2.33333,-3.33334 -4.5,1 -2.16667,4.33333 -2.16667,9.33333 -3.83333,8.83333 -1.66667,-0.5 -7.33334,-3.16667 -8.33334,-4 -1,-0.83333 -4.33333,-4.16667 -4.33333,-5.16667 0,-1 -2.83333,1.66667 -3.33333,3.33334 -0.5,1.66666 -4.16667,6.83333 -4.5,7.83333 -0.33334,1 -0.16667,6.33333 -1.16667,7.5 -1,1.16667 0.83333,4 1.16667,4.83333 0.33333,0.83334 1.33333,6.83334 0.66666,8 -0.66666,1.16667 1.83334,3.66667 0.66667,5.5 -1.16667,1.83334 -2.5,2.66667 -2.5,2.66667 0,0 2,1.83333 2,2.5 0,0.66667 -2.83333,11.66667 -3.16667,12.66667 -0.33333,1 0,3.66666 0,3.66666"
           style="color:#000000;fill:#fefee9;fill-opacity:1;stroke:#838383;stroke-width:1px;stroke-linecap:butt;stroke-linejoin:miter;stroke-miterlimit:4;stroke-opacity:1;stroke-dasharray:none;stroke-dashoffset:0;marker:none;visibility:visible;display:inline;overflow:visible;enable-background:accumulate" />
        <path
           transform="translate(-18.057785,1067.1513)"
           inkscape:connector-curvature="0"
           id="path3771"
           d="m 24.166667,-151.69332 c 0,0 4.166666,-2.16667 3,-3 -1.166667,-0.83333 -2.5,-1.16667 -0.333334,-2.33333 2.166667,-1.16667 9.333334,-1.16667 10.666667,-2.33334 1.333333,-1.16666 3.166667,-0.66666 3.833333,-3.33333 0.666667,-2.66667 7,0 9,0.83333 2,0.83334 13.833334,7.5 15.666667,7.33334 1.833333,-0.16667 9.333333,6.83333 9.166667,7.5 -0.166667,0.66666 2.833333,5.16666 3.166666,3 0.333334,-2.16667 -3.333333,-9.83334 0.833334,-12.16667 4.166666,-2.33333 6.5,-3.5 12,-5 5.5,-1.5 13.833333,-2.33333 14.000003,-4.5 0.16666,-2.16667 0.83333,-2.5 0.83333,-2.5"
           style="color:#000000;fill:#fefee9;fill-opacity:1;stroke:#838383;stroke-width:1px;stroke-linecap:butt;stroke-linejoin:miter;stroke-miterlimit:4;stroke-opacity:1;stroke-dasharray:none;stroke-dashoffset:0;marker:none;visibility:visible;display:inline;overflow:visible;enable-background:accumulate" />
        <path
           transform="translate(-18.057785,1067.1513)"
           inkscape:connector-curvature="0"
           id="path3773"
           d="m 116,-183.35999 c 0,0 3,-0.5 5.5,-2 2.5,-1.5 4.16667,0.33334 5.16667,-0.83333 1,-1.16667 2,-1.66667 3.83333,-1.5 1.83333,0.16667 4.83333,3.16667 5.5,2 0.66667,-1.16667 8.83333,-14.5 12.16667,-14.33333 3.33333,0.16666 6.83333,1.83333 7.66666,1.33333 0.83334,-0.5 11.5,1 12.66667,0.16667 1.16667,-0.83334 4,-4.33334 4,-4.33334"
           style="color:#000000;fill:#fefee9;fill-opacity:1;stroke:#838383;stroke-width:1px;stroke-linecap:butt;stroke-linejoin:miter;stroke-miterlimit:4;stroke-opacity:1;stroke-dasharray:none;stroke-dashoffset:0;marker:none;visibility:visible;display:inline;overflow:visible;enable-background:accumulate" />
        <path
           transform="translate(-18.057785,1067.1513)"
           inkscape:connector-curvature="0"
           id="path3775"
           d="m 213.83333,-197.19332 c 0,0 0,-3.5 1.83334,-4.33333 1.83333,-0.83334 2.16666,-3.33334 2.33333,-5.33334 0.16667,-2 2.33333,-5.66666 7,-5.33333 4.66667,0.33333 8.83333,1.5 11.5,0.16667 2.66667,-1.33334 8.33333,1.5 8.66667,2.16666 0.33333,0.66667 4.66666,-4.5 6,-2.66666 1.33333,1.83333 4.83333,4.33333 6.33333,3 1.5,-1.33334 3.33333,-5.16667 8.66667,-3.83334 5.33333,1.33334 12.80049,0.62205 15.35702,-1.23917 2.74957,-2.00175 5.11254,0.7841 8.80964,-1.26083 3.72687,-2.0614 9,-8.16666 12.5,-7.5 3.5,0.66667 4.66667,-5.5 4.66667,-5.5 0,0 7.28037,0.26948 10.1088,-2.6768 2.82842,-2.94628 12.25651,-7.30677 13.55288,-7.18892 1.29636,0.11785 7.89602,-1.06066 8.95668,-2.71057 1.06066,-1.64992 12.37437,-23.45238 16.85271,-24.27734 4.47835,-0.82495 4.24264,-5.539 5.0676,-5.06759 0.82496,0.4714 2.23917,-3.53554 2.23917,-3.53554 0,0 0.47141,-3.29983 -0.35355,-6.59966 -0.82496,-3.29983 0.35355,-10.72445 0.35355,-10.72445 0,0 -4.12479,-5.65686 -3.65338,-8.24958 0.4714,-2.59273 0.35355,-6.83537 -2.00347,-9.78165 -2.35702,-2.94628 -10.3709,-10.72445 -10.01735,-16.85271 0.35356,-6.12826 0.23571,-10.6066 -3.77123,-11.54941 -4.00694,-0.94281 -10.96016,-1.29636 -10.6066,-4.59619 0.35355,-3.29984 -2.47488,-5.42116 0.11785,-6.24611 2.59272,-0.82496 3.41768,-6.12826 3.41768,-6.12826"
           style="color:#000000;fill:#fefee9;fill-opacity:1;stroke:#838383;stroke-width:1px;stroke-linecap:butt;stroke-linejoin:miter;stroke-miterlimit:4;stroke-opacity:1;stroke-dasharray:none;stroke-dashoffset:0;marker:none;visibility:visible;display:inline;overflow:visible;enable-background:accumulate"
           sodipodi:nodetypes="csssscsssssscssssscscssssssc" />
        <path
           transform="translate(-18.057785,1067.1513)"
           inkscape:connector-curvature="0"
           id="path3777"
           d="m 304.17377,-223.40506 c 0,0 3.29983,1.64992 8.01387,1.41421 4.71405,-0.2357 8.01388,-1.06066 8.95669,-1.64991 0.94281,-0.58926 6.95322,0.2357 8.60313,-1.17851 1.64992,-1.41422 5.77471,-5.3033 10.48875,-5.77471 4.71405,-0.4714 12.96363,-0.94281 12.96363,-2.23917 0,-1.29636 -0.94281,-3.41768 1.29636,-4.8319 2.23917,-1.41421 4.12479,-1.76776 7.77817,-1.76776 3.65339,0 11.31371,-0.47141 11.31371,-1.17852 0,-0.7071 -1.06066,-3.53553 0.82496,-3.77123 1.88562,-0.2357 3.29983,0 3.77124,-1.06066 0.4714,-1.06066 0.2357,-1.64992 2.23917,-1.29636 2.00347,0.35355 0.94281,2.94627 3.53553,1.64991 2.59273,-1.29636 22.15601,-16.97056 27.57717,-16.97056 5.42115,0 16.02775,-2.94628 16.61701,-3.53554 0.58925,-0.58925 4.36049,4.3605 8.01387,4.47835 3.65339,0.11785 5.53901,2.00347 13.08148,-1.64992 7.54247,-3.65338 11.78511,-9.78164 13.67073,-9.54594 1.88562,0.2357 1.06066,2.35702 3.29983,-0.94281 2.23917,-3.29983 2.47487,-4.36049 5.3033,-4.24264 2.82843,0.11785 3.88909,2.47487 4.47834,1.88562 0.58926,-0.58926 2.47488,-3.77124 5.18545,-4.12479 2.71058,-0.35355 7.54248,-1.29636 9.19239,-2.12132 1.64992,-0.82496 2.35703,0.11785 2.82843,-1.64992 0.4714,-1.76776 0.2357,-3.77123 2.59272,-4.00694 2.35703,-0.2357 4.00694,-1.06066 6.12826,-2.59272 2.12132,-1.53206 8.95669,-4.12479 11.31371,-4.47834 2.35702,-0.35356 2.71058,-0.47141 3.18198,-1.41422 0.47141,-0.94281 -2.12132,-2.59272 3.06413,-2.94627 5.18545,-0.35356 3.88909,0.11785 5.0676,-1.29637 1.17851,-1.41421 4.12479,-4.47834 5.77471,-4.71404 1.64991,-0.2357 4.83189,-4.12479 6.71751,-3.77124 1.88562,0.35355 1.88562,1.17851 4.59619,-0.35355 2.71058,-1.53207 3.29984,-1.53207 6.36397,-1.53207 3.06412,0 9.31023,-0.35355 9.31023,-0.35355"
           style="color:#000000;fill:#fefee9;fill-opacity:1;stroke:#838383;stroke-width:1px;stroke-linecap:butt;stroke-linejoin:miter;stroke-miterlimit:4;stroke-opacity:1;stroke-dasharray:none;stroke-dashoffset:0;marker:none;visibility:visible;display:inline;overflow:visible;enable-background:accumulate" />
        <path
           transform="translate(-18.057785,1067.1513)"
           inkscape:connector-curvature="0"
           id="path3779"
           d="m 482.12897,-279.85575 c 0,0 -0.94281,3.65338 1.06066,3.29983 2.00347,-0.35355 5.0676,0.94281 5.18545,4.36049 0.11785,3.41768 0,4.5962 1.06066,4.24264 1.06066,-0.35355 2.94628,-3.06413 2.59273,-0.94281 -0.35355,2.12132 -1.41421,8.95669 -2.23917,12.02082 -0.82496,3.06413 -3.06413,4.71404 -2.82843,6.24611 0.2357,1.53206 -1.53206,8.01388 -2.59272,9.66379 -1.06066,1.64992 -1.64992,2.59273 -2.23918,4.94975 -0.58925,2.35702 -0.11785,4.00694 -1.64991,4.36049 -1.53207,0.35355 -3.88909,-0.82496 -3.06413,1.41421 0.82496,2.23918 7.07107,9.8995 8.36743,9.19239 1.29636,-0.7071 2.23917,-1.76776 3.06413,-0.11785 0.82496,1.64992 5.89255,6.59966 8.01388,7.42462 2.12132,0.82496 4.24264,0.82496 6.0104,2.71058 1.76777,1.88562 3.65339,4.71404 4.5962,7.07107 0.94281,2.35702 3.88908,4.83189 4.24264,7.30677 0.35355,2.47487 1.17851,5.18545 1.17851,5.18545"
           style="color:#000000;fill:#fefee9;fill-opacity:1;stroke:#838383;stroke-width:1px;stroke-linecap:butt;stroke-linejoin:miter;stroke-miterlimit:4;stroke-opacity:1;stroke-dasharray:none;stroke-dashoffset:0;marker:none;visibility:visible;display:inline;overflow:visible;enable-background:accumulate" />
        <path
           transform="translate(-18.057785,1067.1513)"
           inkscape:connector-curvature="0"
           id="path3781"
           d="m 373.66667,-240.69332 c 0,0 0.83333,4.16667 6.83333,5.5 6,1.33333 7.33333,0.66667 7,3.33333 -0.33333,2.66667 -1.83333,3.5 0.33333,4 2.16667,0.5 2.66667,3.33334 5.16667,2.83334 2.5,-0.5 2.83333,-2.5 4.66667,-1.33334 1.83333,1.16667 4.16666,3.5 5.33333,2.16667 1.16667,-1.33333 -0.16667,-3.16667 2.83333,-2 3,1.16667 18.16667,5.66667 20.16667,7.33333 2,1.66667 3.66667,3.5 4.83333,3.5 1.16667,0 5.33334,3.83334 5.5,6.33334 0.16667,2.5 -1.33333,1.83333 0.83334,3.5 2.16666,1.66666 3.16666,1 3.66666,3 0.5,2 0.83334,4.33333 2.5,5 1.66667,0.66666 3,0.66666 3.33334,3 0.33333,2.33333 4.16666,6.66666 2.66666,8.33333 -1.5,1.66667 -2.5,-0.16667 -1.83333,2.16667 0.66667,2.33333 0.66667,3.83333 2.33333,4.83333 1.66667,1 3.5,4.16667 5,5.5 1.5,1.33333 3,-1.66667 4.16667,0.5 1.16667,2.16667 2.83333,4.66667 2.83333,4.66667"
           style="color:#000000;fill:#fefee9;fill-opacity:1;stroke:#838383;stroke-width:1px;stroke-linecap:butt;stroke-linejoin:miter;stroke-miterlimit:4;stroke-opacity:1;stroke-dasharray:none;stroke-dashoffset:0;marker:none;visibility:visible;display:inline;overflow:visible;enable-background:accumulate" />
        <path
           transform="translate(-18.057785,1067.1513)"
           inkscape:connector-curvature="0"
           id="path3783"
           d="m 206.33333,-319.02665 c 0,0 -3.33333,11.16666 0.83334,13 4.16666,1.83333 8.83333,1.66666 11,0.33333 2.16666,-1.33333 4.33333,-3.66667 4.66666,-0.83333 0.33334,2.83333 0.83334,8.5 1.83334,9.83333 1,1.33333 1.33333,5 0.83333,7.33333 -0.5,2.33334 -0.66667,4.83334 0.33333,6.16667 1,1.33333 1,7.83333 0.16667,9.16667 -0.83333,1.33333 -2,1 -0.83333,4.16666 1.16666,3.16667 0.33333,13.16667 3.33333,16.66667 3,3.5 4.5,8.5 6,10.5 1.5,2 5.16667,2.83333 6.83333,3.83333 1.66667,1 2.83334,3.83334 6.5,3.16667 3.66667,-0.66667 10.16667,-2.5 12.33334,-0.33333 2.16666,2.16666 4.16666,4.16666 7,4.33333 2.83333,0.16667 3,-0.66667 4.66666,0.66667 1.66667,1.33333 10.83334,9.5 11,10.16666 0.16667,0.66667 -2.15829,5.5 1.50838,5.66667 3.66666,0.16667 9.15829,-2 11.32496,-1.5 2.16666,0.5 10.66666,3.16667 11.5,5.33333 0.83333,2.16667 1.33333,6.16667 3.16666,7 1.83334,0.83334 7.5,8.16667 10,9.16667 2.5,1 4.66667,-0.16667 5,1.83333 0.33334,2 2.66667,8.33334 3.66667,9.33334 1,1 5.83333,6.66666 5.83333,8.5 0,1.83333 -0.83333,3.66666 -0.16666,5.16666 0.66666,1.5 0.66666,7.16667 1.66666,8.16667 1,1 -0.5,3.5 0.5,5.16667 1,1.66666 7.66667,4.5 7.83334,5.66666 0.16666,1.16667 -0.5,3.33334 1.83333,3.83334 2.33333,0.5 2.66667,-1.16667 3.16667,1.33333 0.5,2.5 1.16666,6.83333 0.5,8.16667 -0.66667,1.33333 2,2.5 1.16666,5.16666 -0.83333,2.66667 -0.16666,9.16667 -0.16666,9.16667"
           style="color:#000000;fill:#fefee9;fill-opacity:1;stroke:#838383;stroke-width:1px;stroke-linecap:butt;stroke-linejoin:miter;stroke-miterlimit:4;stroke-opacity:1;stroke-dasharray:none;stroke-dashoffset:0;marker:none;visibility:visible;display:inline;overflow:visible;enable-background:accumulate"
           sodipodi:nodetypes="cssssssssssssssscssssssssssssssssc" />
        <path
           style="color:#000000;fill:#fefee9;fill-opacity:1;stroke:#838383;stroke-width:1px;stroke-linecap:butt;stroke-linejoin:miter;stroke-miterlimit:4;stroke-opacity:1;stroke-dasharray:none;stroke-dashoffset:0;marker:none;visibility:visible;display:inline;overflow:visible;enable-background:accumulate"
           d="m 390.42085,699.94108 c 0,0 0.4714,13.90643 1.88562,15.55635 1.41421,1.64992 7.30677,4.47834 5.89255,6.12826 -1.41421,1.64991 -1.41421,0.94281 0.94281,3.29983 2.35702,2.35702 5.18545,6.59966 7.07107,8.24958 1.88562,1.64991 5.89256,2.82843 5.65685,5.65685 -0.2357,2.82843 0,11.07801 -1.64991,12.02082 -1.64992,0.94281 -0.70711,4.47834 -0.70711,4.47834 0,0 -0.2357,2.35702 -1.17851,3.06413 -0.94281,0.70711 -2.59273,3.06413 -2.59273,4.24264 0,1.17851 0.47141,4.94975 -0.4714,5.89256 -0.94281,0.94281 1.88562,3.06413 1.41421,5.18545 -0.4714,2.12132 -0.2357,3.29983 -1.64991,4.47834 -1.41422,1.17851 -3.06413,2.59272 -2.82843,4.71404 0.2357,2.12133 0.2357,8.24958 2.35702,9.8995 2.12132,1.64991 5.89256,8.95668 5.89256,8.95668"
           id="path3833"
           inkscape:connector-curvature="0" />
      </g>
    </g>
    <path
       style="fill:#fefee9;fill-opacity:1;stroke:none"
       d="m 73.230776,363.8183 c -0.238828,-0.13953 -0.265056,-0.5754 -0.222839,-3.70327 0.04773,-3.53642 0.147079,-4.22814 0.694068,-4.83256 0.349606,-0.38631 0.549458,-0.22661 0.549458,0.43907 0,1.27181 0.71291,2.48396 1.733512,2.94746 0.843411,0.38303 1.67877,0.39693 3.058594,0.0509 0.584871,-0.14668 1.114662,-0.21475 1.177315,-0.15126 0.13558,0.13738 0.102309,2.60947 -0.04291,3.18806 -0.114777,0.4573 -1.066446,0.93802 -3.451098,1.74323 -1.466011,0.49502 -2.960751,0.63115 -3.496103,0.31839 l 0,0 z"
       id="path3986"
       inkscape:connector-curvature="0"
       transform="translate(0,689.22217)" />
  </g>
</svg>
